<svg aria-hidden="true" style="position: absolute; width: 0; height: 0; overflow: hidden;" version="1.1" xmlns="http://www.w3.org/2000/svg" xmlns:xlink="http://www.w3.org/1999/xlink">
<defs>
<symbol id="icon-outline-expand_more-24px" viewBox="0 0 32 32">
<title>outline-expand_more-24px</title>
<path d="M22.12 11.453l-6.12 6.107-6.12-6.107-1.88 1.88 8 8 8-8-1.88-1.88z"></path>
</symbol>
<symbol id="icon-outline-nature_people-24px" viewBox="0 0 32 32">
<title>outline-nature_people-24px</title>
<path d="M8 12.667c0 1.105-0.895 2-2 2s-2-0.895-2-2c0-1.105 0.895-2 2-2s2 0.895 2 2z"></path>
<path d="M29.56 12.227c0-5.16-4.173-9.333-9.333-9.333s-9.333 4.173-9.333 9.333c0 4.627 3.36 8.453 7.773 9.187v5.253h-10.667v-4h1.333v-5.333c0-0.733-0.6-1.333-1.333-1.333h-4c-0.733 0-1.333 0.6-1.333 1.333v5.333h1.333v6.667h21.333v-2.667h-4v-5.173c4.627-0.547 8.227-4.48 8.227-9.267zM20.227 18.893c-3.68 0-6.667-2.987-6.667-6.667s2.987-6.667 6.667-6.667 6.667 2.987 6.667 6.667-2.987 6.667-6.667 6.667z"></path>
</symbol>
<symbol id="icon-baseline-arrow_back_ios-24px" viewBox="0 0 32 32">
<title>baseline-arrow_back_ios-24px</title>
<path d="M15.56 5.16l-2.36-2.36-13.2 13.2 13.2 13.2 2.36-2.36-10.84-10.84z"></path>
</symbol>
<symbol id="icon-baseline-arrow_forward_ios-24px" viewBox="0 0 32 32">
<title>baseline-arrow_forward_ios-24px</title>
<path d="M7.84 5.493l10.507 10.507-10.507 10.507 2.827 2.827 13.333-13.333-13.333-13.333z"></path>
</symbol>
<symbol id="icon-outline-add-24px" viewBox="0 0 32 32">
<title>outline-add-24px</title>
<path d="M25.333 17.333h-8v8h-2.667v-8h-8v-2.667h8v-8h2.667v8h8v2.667z"></path>
</symbol>
<symbol id="icon-outline-add_circle-24px" viewBox="0 0 32 32">
<title>outline-add_circle-24px</title>
<path d="M16 2.667c-7.36 0-13.333 5.973-13.333 13.333s5.973 13.333 13.333 13.333 13.333-5.973 13.333-13.333-5.973-13.333-13.333-13.333zM22.667 17.333h-5.333v5.333h-2.667v-5.333h-5.333v-2.667h5.333v-5.333h2.667v5.333h5.333v2.667z"></path>
</symbol>
<symbol id="icon-outline-account" viewBox="0 0 32 32">
<title>outline-account</title>
<path d="M16 2.667c-7.36 0-13.333 5.973-13.333 13.333s5.973 13.333 13.333 13.333 13.333-5.973 13.333-13.333-5.973-13.333-13.333-13.333zM9.427 24.373c0.573-1.2 4.067-2.373 6.573-2.373s6.013 1.173 6.573 2.373c-1.813 1.44-4.093 2.293-6.573 2.293s-4.76-0.853-6.573-2.293zM24.48 22.44c-1.907-2.32-6.533-3.107-8.48-3.107s-6.573 0.787-8.48 3.107c-1.36-1.787-2.187-4.013-2.187-6.44 0-5.88 4.787-10.667 10.667-10.667s10.667 4.787 10.667 10.667c0 2.427-0.827 4.653-2.187 6.44zM16 8c-2.587 0-4.667 2.080-4.667 4.667s2.080 4.667 4.667 4.667 4.667-2.080 4.667-4.667-2.080-4.667-4.667-4.667zM16 14.667c-1.107 0-2-0.893-2-2s0.893-2 2-2 2 0.893 2 2-0.893 2-2 2z"></path>
</symbol>
<symbol id="icon-outline-assessment-24px" viewBox="0 0 32 32">
<title>outline-assessment-24px</title>
<path d="M25.333 4h-18.667c-1.467 0-2.667 1.2-2.667 2.667v18.667c0 1.467 1.2 2.667 2.667 2.667h18.667c1.467 0 2.667-1.2 2.667-2.667v-18.667c0-1.467-1.2-2.667-2.667-2.667zM25.333 25.333h-18.667v-18.667h18.667v18.667zM9.333 13.333h2.667v9.333h-2.667zM14.667 9.333h2.667v13.333h-2.667zM20 17.333h2.667v5.333h-2.667z"></path>
</symbol>
<symbol id="icon-outline-category-24px" viewBox="0 0 32 32">
<title>outline-category-24px</title>
<path d="M16 2.667l-7.333 12h14.667l-7.333-12zM16 7.787l2.573 4.213h-5.16l2.587-4.213zM23.333 17.333c-3.32 0-6 2.68-6 6s2.68 6 6 6 6-2.68 6-6-2.68-6-6-6zM23.333 26.667c-1.84 0-3.333-1.493-3.333-3.333s1.493-3.333 3.333-3.333 3.333 1.493 3.333 3.333-1.493 3.333-3.333 3.333zM4 28.667h10.667v-10.667h-10.667v10.667zM6.667 20.667h5.333v5.333h-5.333v-5.333z"></path>
</symbol>
<symbol id="icon-outline-delete_forever-24px" viewBox="0 0 32 32">
<title>outline-delete_forever-24px</title>
<path d="M18.827 13.96l-2.827 2.827-2.84-2.827-1.88 1.88 2.84 2.827-2.827 2.827 1.88 1.88 2.827-2.827 2.827 2.827 1.88-1.88-2.827-2.827 2.827-2.827zM20.667 5.333l-1.333-1.333h-6.667l-1.333 1.333h-4.667v2.667h18.667v-2.667zM8 25.333c0 1.467 1.2 2.667 2.667 2.667h10.667c1.467 0 2.667-1.2 2.667-2.667v-16h-16v16zM10.667 12h10.667v13.333h-10.667v-13.333z"></path>
</symbol>
<symbol id="icon-baseline-search-24px" viewBox="0 0 32 32">
<title>baseline-search-24px</title>
<path d="M20.667 18.667h-1.053l-0.373-0.36c1.307-1.52 2.093-3.493 2.093-5.64 0-4.787-3.88-8.667-8.667-8.667s-8.667 3.88-8.667 8.667 3.88 8.667 8.667 8.667c2.147 0 4.12-0.787 5.64-2.093l0.36 0.373v1.053l6.667 6.653 1.987-1.987-6.653-6.667zM12.667 18.667c-3.32 0-6-2.68-6-6s2.68-6 6-6 6 2.68 6 6-2.68 6-6 6z"></path>
</symbol>
<symbol id="icon-dots-three-vertical" viewBox="0 0 20 20">
<title>dots-three-vertical</title>
<path d="M10.001 7.8c-1.215 0-2.201 0.985-2.201 2.2s0.986 2.2 2.201 2.2c1.215 0 2.199-0.985 2.199-2.2s-0.984-2.2-2.199-2.2zM10.001 5.2c1.215 0 2.199-0.986 2.199-2.2s-0.984-2.2-2.199-2.2c-1.215 0-2.201 0.985-2.201 2.2s0.986 2.2 2.201 2.2zM10.001 14.8c-1.215 0-2.201 0.985-2.201 2.2s0.986 2.2 2.201 2.2c1.215 0 2.199-0.985 2.199-2.2s-0.984-2.2-2.199-2.2z"></path>
</symbol>
<symbol id="icon-dots-two-vertical" viewBox="0 0 20 20">
<title>dots-two-vertical</title>
<path d="M10.001 8.2c1.215 0 2.199-0.986 2.199-2.2s-0.984-2.2-2.199-2.2c-1.215 0-2.201 0.985-2.201 2.2s0.986 2.2 2.201 2.2zM10.001 11.8c-1.215 0-2.201 0.985-2.201 2.2s0.986 2.2 2.201 2.2c1.215 0 2.199-0.985 2.199-2.2s-0.984-2.2-2.199-2.2z"></path>
</symbol>
<symbol id="icon-pencil" viewBox="0 0 32 32">
<title>pencil</title>
<path d="M27 0c2.761 0 5 2.239 5 5 0 1.126-0.372 2.164-1 3l-2 2-7-7 2-2c0.836-0.628 1.874-1 3-1zM2 23l-2 9 9-2 18.5-18.5-7-7-18.5 18.5zM22.362 11.362l-14 14-1.724-1.724 14-14 1.724 1.724z"></path>
</symbol>
</defs>
</svg>
