<!-- Generated by IcoMoon.io -->
<svg version="1.1" xmlns="http://www.w3.org/2000/svg" width="32" height="32" viewBox="0 0 32 32">
<title>outline-category-24px</title>
<path d="M16 2.667l-7.333 12h14.667l-7.333-12zM16 7.787l2.573 4.213h-5.16l2.587-4.213zM23.333 17.333c-3.32 0-6 2.68-6 6s2.68 6 6 6 6-2.68 6-6-2.68-6-6-6zM23.333 26.667c-1.84 0-3.333-1.493-3.333-3.333s1.493-3.333 3.333-3.333 3.333 1.493 3.333 3.333-1.493 3.333-3.333 3.333zM4 28.667h10.667v-10.667h-10.667v10.667zM6.667 20.667h5.333v5.333h-5.333v-5.333z"></path>
</svg>
